<svg width="100%" height="100%" id="svg" viewBox="0 0 1440 700" xmlns="http://www.w3.org/2000/svg" class="transition duration-300 ease-in-out delay-150"><defs><linearGradient id="gradient" x1="0%" y1="50%" x2="100%" y2="50%"><stop offset="5%" stop-color="#002bdc66"></stop><stop offset="95%" stop-color="#32ded466"></stop></linearGradient></defs><path d="M 0,700 C 0,700 0,175 0,175 C 70.833390587427,195.44039848849195 141.666781174854,215.88079697698387 206,213 C 270.333218825146,210.11920302301613 328.16626588801097,183.91721058055649 396,183 C 463.83373411198903,182.08278941944351 541.668155273102,206.45036070079013 619,211 C 696.331844726898,215.54963929920987 773.161113019581,200.28134661628306 848,198 C 922.838886980419,195.71865338371694 995.6873926485744,206.42425283407766 1052,206 C 1108.3126073514256,205.57574716592234 1148.0893163861215,194.02164204740637 1210,187 C 1271.9106836138785,179.97835795259363 1355.9553418069393,177.4891789762968 1440,175 C 1440,175 1440,700 1440,700 Z" stroke="none" stroke-width="0" fill="url(#gradient)" class="transition-all duration-300 ease-in-out delay-150 path-0"></path><defs><linearGradient id="gradient" x1="0%" y1="50%" x2="100%" y2="50%"><stop offset="5%" stop-color="#002bdc88"></stop><stop offset="95%" stop-color="#32ded488"></stop></linearGradient></defs><path d="M 0,700 C 0,700 0,350 0,350 C 85.27585022329094,328.9020954998282 170.5517004465819,307.80419099965644 244,305 C 317.4482995534181,302.19580900034356 379.06904843696327,317.68533150120237 433,335 C 486.93095156303673,352.31466849879763 533.172105805565,371.45448299553414 593,379 C 652.827894194435,386.54551700446586 726.2425283407764,382.49673651666103 813,370 C 899.7574716592236,357.50326348333897 999.8577808313294,336.558570937822 1061,349 C 1122.1422191686706,361.441429062178 1144.3263483339058,407.26897973205087 1201,413 C 1257.6736516660942,418.73102026794913 1348.836825833047,384.36551013397457 1440,350 C 1440,350 1440,700 1440,700 Z" stroke="none" stroke-width="0" fill="url(#gradient)" class="transition-all duration-300 ease-in-out delay-150 path-1"></path><defs><linearGradient id="gradient" x1="0%" y1="50%" x2="100%" y2="50%"><stop offset="5%" stop-color="#002bdcff"></stop><stop offset="95%" stop-color="#32ded4ff"></stop></linearGradient></defs><path d="M 0,700 C 0,700 0,525 0,525 C 64.95018893850911,560.1267605633802 129.90037787701823,595.2535211267606 200,579 C 270.09962212298177,562.7464788732394 345.3486774304363,495.11267605633805 420,493 C 494.6513225695637,490.88732394366195 568.7049124012368,554.2957746478874 634,558 C 699.2950875987632,561.7042253521126 755.8316729646169,505.7042253521127 827,508 C 898.1683270353831,510.2957746478873 983.9683957402954,570.887323943662 1058,589 C 1132.0316042597046,607.112676056338 1194.2947440742014,582.7464788732394 1256,565 C 1317.7052559257986,547.2535211267606 1378.8526279628993,536.1267605633802 1440,525 C 1440,525 1440,700 1440,700 Z" stroke="none" stroke-width="0" fill="url(#gradient)" class="transition-all duration-300 ease-in-out delay-150 path-2"></path></svg>