<svg width="100%" height="100%" id="svg" viewBox="0 0 1440 700" xmlns="http://www.w3.org/2000/svg" class="transition duration-300 ease-in-out delay-150"><defs><linearGradient id="gradient" x1="0%" y1="50%" x2="100%" y2="50%"><stop offset="5%" stop-color="#fcb90088"></stop><stop offset="95%" stop-color="#ff690088"></stop></linearGradient></defs><path d="M 0,700 C 0,700 0,233 0,233 C 91.87559808612443,259.6985645933014 183.75119617224885,286.39712918660285 269,295 C 354.24880382775115,303.60287081339715 432.87081339712915,294.11004784688987 539,273 C 645.1291866028708,251.8899521531101 778.7655502392346,219.16267942583735 886,230 C 993.2344497607654,240.83732057416265 1074.066985645933,295.2392344497608 1162,303 C 1249.933014354067,310.7607655502392 1344.9665071770335,271.88038277511964 1440,233 C 1440,233 1440,700 1440,700 Z" stroke="none" stroke-width="0" fill="url(#gradient)" class="transition-all duration-300 ease-in-out delay-150 path-0"></path><defs><linearGradient id="gradient" x1="0%" y1="50%" x2="100%" y2="50%"><stop offset="5%" stop-color="#fcb900ff"></stop><stop offset="95%" stop-color="#ff6900ff"></stop></linearGradient></defs><path d="M 0,700 C 0,700 0,466 0,466 C 71.76076555023923,510.49760765550235 143.52153110047846,554.9952153110047 252,545 C 360.47846889952154,535.0047846889953 505.67464114832535,470.51674641148327 614,434 C 722.3253588516747,397.48325358851673 793.7799043062201,388.9377990430622 877,398 C 960.2200956937799,407.0622009569378 1055.2057416267944,433.732057416268 1151,448 C 1246.7942583732056,462.267942583732 1343.3971291866028,464.13397129186603 1440,466 C 1440,466 1440,700 1440,700 Z" stroke="none" stroke-width="0" fill="url(#gradient)" class="transition-all duration-300 ease-in-out delay-150 path-1"></path></svg>